<?xml version="1.0" encoding="UTF-8" standalone="no"?>
<!-- Created with Inkscape (http://www.inkscape.org/) -->

<svg
   xmlns:dc="http://purl.org/dc/elements/1.1/"
   xmlns:cc="http://creativecommons.org/ns#"
   xmlns:rdf="http://www.w3.org/1999/02/22-rdf-syntax-ns#"
   xmlns:svg="http://www.w3.org/2000/svg"
   xmlns="http://www.w3.org/2000/svg"
   xmlns:sodipodi="http://sodipodi.sourceforge.net/DTD/sodipodi-0.dtd"
   xmlns:inkscape="http://www.inkscape.org/namespaces/inkscape"
   width="50mm"
   height="50mm"
   viewBox="0 0 50 50"
   version="1.1"
   id="svg8"
   inkscape:version="0.92.4 (5da689c313, 2019-01-14)"
   sodipodi:docname="logo.svg">
  <defs
     id="defs2" />
  <sodipodi:namedview
     id="base"
     pagecolor="#ffffff"
     bordercolor="#666666"
     borderopacity="1.0"
     inkscape:pageopacity="0.0"
     inkscape:pageshadow="2"
     inkscape:zoom="0.98994949"
     inkscape:cx="360.05182"
     inkscape:cy="131.0662"
     inkscape:document-units="mm"
     inkscape:current-layer="layer1"
     showgrid="false"
     inkscape:window-width="1920"
     inkscape:window-height="1017"
     inkscape:window-x="-8"
     inkscape:window-y="-8"
     inkscape:window-maximized="1" />
  <metadata
     id="metadata5">
    <rdf:RDF>
      <cc:Work
         rdf:about="">
        <dc:format>image/svg+xml</dc:format>
        <dc:type
           rdf:resource="http://purl.org/dc/dcmitype/StillImage" />
        <dc:title></dc:title>
      </cc:Work>
    </rdf:RDF>
  </metadata>
  <g
     inkscape:label="Layer 1"
     inkscape:groupmode="layer"
     id="layer1"
     transform="translate(0,-247)">
    <path
       style="fill:#000000;stroke-width:0.26458332"
       d="m 26.480919,295.17259 c 0,-0.15411 -0.11459,-0.20937 -0.25465,-0.12281 -0.43024,0.2659 -3.72513,-0.42506 -5.16047,-1.08218 -2.34014,-1.07135 -3.61202,-2.96546 -4.16786,-6.20682 -0.34537,-2.01408 -0.13124,-3.34772 0.87358,-5.44088 0.68911,-1.43548 2.59044,-3.53586 3.20078,-3.53586 0.26484,0 0.48153,-0.10262 0.48153,-0.22805 0,-0.20789 2.51231,-0.83028 3.35142,-0.83028 0.68722,0 0.34084,0.54478 -0.44651,0.70225 -0.43959,0.0879 -0.86333,0.26353 -0.94165,0.39026 -0.0783,0.12672 -0.35809,0.23041 -0.6217,0.23041 -0.4391,0 -1.17076,0.66287 -3.04679,2.76033 -1.58181,1.76853 -2.19378,4.77693 -1.34916,6.63237 0.33743,0.74126 0.35183,0.67805 0.21778,-0.95587 -0.13225,-1.61194 -0.074,-1.88262 0.74062,-3.43958 0.48629,-0.92948 1.24612,-2.02795 1.68851,-2.44105 1.00691,-0.94022 2.71842,-1.83714 3.07965,-1.61388 0.15003,0.0927 0.94961,0.21451 1.77687,0.27065 0.82725,0.0562 1.74221,0.21486 2.03325,0.3527 0.29105,0.13784 0.94589,0.43781 1.45521,0.6666 1.13693,0.51071 2.00952,1.7502 2.65573,3.77243 0.26995,0.84476 0.51079,1.47639 0.53521,1.40363 0.40435,-1.20486 -0.38731,-4.09371 -1.43766,-5.24616 -0.70971,-0.7787 -3.2429,-2.32633 -4.20067,-2.56636 -1.06607,-0.26717 -0.88742,-0.62596 0.27061,-0.54347 1.01396,0.0722 3.7034,1.39121 4.71879,2.31426 0.30669,0.27881 0.90201,1.1867 1.32291,2.01755 0.69018,1.36238 0.76353,1.75732 0.74739,4.02418 -0.0159,2.23715 -0.0969,2.64894 -0.73602,3.7449 -0.39497,0.67725 -0.89293,1.37644 -1.10658,1.55375 -0.21365,0.17732 -0.38846,0.49344 -0.38846,0.70249 0,0.20905 -0.11906,0.3065 -0.26458,0.21657 -0.14552,-0.0899 -0.26458,0.008 -0.26458,0.21756 0,0.51787 -1.60044,1.7015 -2.93947,2.17394 -1.29865,0.45819 -1.82303,0.4888 -1.82303,0.10642 z m 0.21469,-3.16969 c 0.67545,-0.62928 0.72463,-1.24577 0.19962,-2.50231 -0.66379,-1.58866 -2.34811,-1.50137 -3.21055,0.16638 -1.01572,1.96421 1.39905,3.83763 3.01093,2.33593 z m 2.13949,-1.44098 c 0.61348,-1.16294 0.71605,-2.50575 0.25932,-3.39475 -0.45956,-0.89451 -1.61013,-2.03313 -2.05446,-2.03313 -0.31134,0 -0.32974,0.0706 -0.0828,0.3175 0.491,0.49101 0.37613,1.57037 -0.23654,2.22252 l -0.55404,0.58974 0.5513,0.29505 c 0.83846,0.44873 1.41477,1.75974 1.20714,2.74607 -0.21629,1.02747 0.12165,0.75158 0.91007,-0.743 z m -5.06508,-1.70689 0.8123,-0.67828 -0.53079,-0.65535 c -0.38335,-0.4733 -0.49175,-0.89589 -0.39025,-1.52135 0.18316,-1.1287 -0.0892,-1.0925 -1.22306,0.16259 -1.33647,1.4793 -1.44996,2.33892 -0.55375,4.19431 l 0.73611,1.52397 0.16857,-1.1738 c 0.12438,-0.86608 0.38153,-1.35162 0.98087,-1.85209 z m 8.71247,-1.91851 c -0.0845,-0.21107 -0.14716,-0.14838 -0.15985,0.15985 -0.0115,0.27891 0.051,0.43518 0.13896,0.34727 0.0879,-0.0879 0.0973,-0.31613 0.0209,-0.50712 z M 7.1353292,283.70414 c -1.7867,-0.84629 -3.75442,-2.59971 -5.13704,-4.57756 l -1.21487999,-1.7379 0.45874999,-2.80805 c 0.25232,-1.54442 0.69462,-3.22476 0.98291,-3.73409 0.66742,-1.17917 2.82755,-3.43958 3.28698,-3.43958 0.19249,0 0.65855,-0.20218 1.03568,-0.44929 0.46586,-0.30524 1.41886,-0.48433 2.97248,-0.55861 1.9691398,-0.0942 2.4881898,-0.0225 3.7367598,0.51597 1.93394,0.83401 2.54136,1.20854 2.31963,1.43027 -0.10135,0.10136 -0.71688,-0.12784 -1.36783,-0.50932 -1.37284,-0.80454 -3.32294,-0.92999 -4.7183598,-0.30353 -0.47788,0.21453 -1.35824,0.5123 -1.95637,0.6617 -1.37783,0.34414 -3.33095,2.04789 -4.04971,3.53266 -0.78345,1.61839 -0.68921,2.47437 0.10467,0.95064 1.21594,-2.33385 4.39931,-4.07092 7.4704898,-4.07644 1.5036,-0.003 2.00907,0.0993 2.38125,0.4804 0.37739,0.38647 0.3926,0.47334 0.0756,0.43168 -0.77047,-0.10126 -1.32291,0.0136 -1.32291,0.27512 0,0.14552 0.33069,0.26458 0.73488,0.26458 1.14062,0 1.91378,0.68111 1.89418,1.66865 -0.0145,0.73273 -0.0467,0.77073 -0.24251,0.28621 -0.23149,-0.57292 -0.93891,-0.89688 -1.52666,-0.69912 -0.53457,0.17986 -0.38569,0.64674 0.49648,1.55691 0.69908,0.72126 0.79414,0.96911 0.61374,1.60009 -0.19815,0.69304 -0.22087,0.70393 -0.31639,0.15176 -0.0634,-0.36618 -0.35489,-0.65811 -0.75835,-0.75938 -0.86844,-0.21796 -0.95401,-0.0835 -0.59759,0.93888 0.26097,0.74862 0.23068,0.93055 -0.23193,1.39316 l -0.53209,0.53209 0.12511,-0.65445 c 0.24443,-1.27865 -2.2157198,-1.49698 -2.6982798,-0.23945 -0.16757,0.43668 0.42645,1.76247 0.79401,1.77215 0.1435598,0.004 0.5676098,0.21219 0.9423198,0.46312 1.61888,1.08408 4.55422,0.22362 5.64934,-1.65603 0.7736,-1.3278 0.85486,-5.65138 0.12003,-6.38621 -0.61805,-0.61805 -0.68568,-1.24765 -0.08,-0.745 1.02288,0.84891 1.79054,2.97712 1.90257,5.27454 0.13712,2.8118 -0.001,3.17029 -2.43216,6.31215 -1.31277,1.69654 -2.86596,2.68368 -4.22257,2.68368 -0.32263,0 -0.69971,0.10363 -0.83796,0.23029 -0.5995,0.54925 -2.6216998,0.51112 -3.8542298,-0.0727 z m 0.17778,-3.06801 c 0.20492,0 1.17845,0.13499 2.16342,0.29999 1.4112998,0.23641 2.0431798,0.22629 2.9814698,-0.0478 1.45628,-0.42532 1.52205,-0.4425 1.85208,-0.48375 0.14552,-0.0182 0.26459,-0.1616 0.26459,-0.31868 0,-0.18629 -0.29903,-0.21703 -0.8599,-0.0884 -0.47294,0.10846 -1.8124,0.16042 -2.97656,0.11547 -1.1641698,-0.045 -2.6524498,-0.10142 -3.3072898,-0.12547 -1.53329,-0.0563 -2.25657,-0.46516 -2.60842,-1.47448 -0.2332,-0.66895 -0.20979,-0.83934 0.13342,-0.97105 0.37547,-0.14407 0.37432,-0.18319 -0.0117,-0.39921 -1.03239,-0.57775 -1.26305,0.62256 -0.41016,2.13439 0.68517,1.21451 2.19358,2.35885 2.32092,1.76074 0.0471,-0.22099 0.2532,-0.4018 0.45811,-0.4018 z m 4.0430898,-7.75284 c 0.35415,-0.42672 0.12015,-1.42154 -0.37948,-1.61327 -0.20394,-0.0783 -0.3708,-0.42565 -0.3708,-0.77199 0,-0.61758 -0.0293,-0.62516 -1.5213598,-0.39373 -1.44148,0.22359 -3.18244,1.2276 -3.43322,1.97992 -0.0586,0.17594 0.7036,0.32676 2.04337,0.40432 1.1753,0.068 2.2754,0.2622 2.4446798,0.43148 0.4039,0.4039 0.86261,0.39006 1.21681,-0.0367 z m 27.64778,10.81565 c -0.3156,-0.22928 -0.74155,-0.3525 -0.94656,-0.27384 -0.20501,0.0787 -0.7088,0.0153 -1.11953,-0.14089 -1.0334,-0.39289 -4.05877,-3.53876 -4.26045,-4.43014 -0.091,-0.40231 -0.31852,-1.34876 -0.50553,-2.10321 -0.29622,-1.19495 -0.27751,-1.64025 0.14517,-3.45548 0.57258,-2.459 1.62423,-4.67864 2.48346,-5.24162 1.19358,-0.78207 4.67072,-1.70513 6.42317,-1.70513 1.45447,0 1.9254,0.12939 3.20903,0.8817 2.35476,1.38009 3.26299,2.39067 4.43696,4.93698 0.57341,1.24371 0.39958,4.95015 -0.2546,5.4285 -0.48353,0.35356 -0.61166,0.79741 -0.14737,0.51046 0.45759,-0.2828 -0.25579,0.92945 -1.3243,2.25038 -0.52308,0.64666 -0.77246,1.08407 -0.55418,0.97204 0.21828,-0.11204 0.0992,0.0613 -0.26458,0.38513 -1.87263,1.66707 -6.15869,2.8293 -7.32069,1.98512 z m -0.039,-2.06843 c 0.49669,0.12989 0.53913,0.0539 0.42067,-0.7532 -0.0917,-0.62486 -0.007,-0.98917 0.28009,-1.1988 0.37076,-0.27111 0.36652,-0.37032 -0.0426,-0.99468 -0.24993,-0.38145 -0.33964,-0.69354 -0.19935,-0.69354 0.14028,0 0.32865,0.11907 0.41858,0.26459 0.34302,0.55501 0.59261,0.22562 0.56707,-0.74838 -0.0249,-0.94894 -0.052,-0.98163 -0.4291,-0.51717 -0.2214,0.27268 -0.67107,0.51577 -0.99927,0.5402 -0.61826,0.046 -0.63445,0.26948 -0.1807,2.49552 0.078,0.38285 -0.0716,0.71242 -0.4408,0.97104 -0.35294,0.24721 -0.48176,0.51638 -0.34952,0.73034 0.13869,0.2244 0.24202,0.24103 0.30595,0.0492 0.0531,-0.15928 0.34513,-0.2246 0.64896,-0.14515 z m 3.73299,-0.46219 c -0.0916,-0.35036 0.15423,-0.85849 0.73584,-1.52092 0.78685,-0.89617 0.82261,-1.00392 0.3608,-1.08704 -0.8972,-0.16148 -0.99488,-0.50176 -0.41389,-1.44182 0.69618,-1.12645 0.70722,-1.34087 0.0509,-0.98964 -0.83017,0.4443 -0.98491,0.3453 -1.84648,-1.18132 -0.4517,-0.80036 -0.87978,-1.4552 -0.9513,-1.4552 -0.0715,0 -0.13003,0.60805 -0.13003,1.35122 0,1.09239 0.076,1.32205 0.39688,1.19893 0.29785,-0.1143 0.39687,0.0437 0.39687,0.63315 0,0.66142 0.10445,0.78545 0.66146,0.78545 0.51298,0 0.65887,0.13362 0.64994,0.59531 -0.0142,0.73274 -0.38327,2.54927 -0.6451,3.175 -0.14721,0.35181 -0.0658,0.46302 0.33896,0.46302 0.40142,0 0.49879,-0.12967 0.39511,-0.52614 z m 2.98096,-1.63999 c 0.17731,-0.55867 0.19618,-0.56149 0.54699,-0.0817 0.33611,0.45965 0.36335,0.43388 0.36335,-0.34362 0,-0.46229 -0.14233,-1.37269 -0.3163,-2.02311 -0.28083,-1.05001 -0.26124,-1.24343 0.17477,-1.72521 0.59685,-0.65951 0.8336,-0.52847 0.37422,0.20712 -0.26934,0.43127 -0.26664,0.61358 0.0141,0.95181 0.4563,0.5498 0.86879,0.52799 1.57349,-0.0832 0.63178,-0.54794 0.61472,-1.13802 -0.0888,-3.07033 -0.23121,-0.63504 -0.39318,-0.84668 -0.40498,-0.52916 -0.0187,0.50196 -0.0341,0.50425 -0.30141,0.0446 -0.15497,-0.26652 -0.22309,-0.70893 -0.15138,-0.98314 0.0717,-0.2742 0.0533,-0.48125 -0.0409,-0.4601 -0.0942,0.0212 -0.77732,-0.54847 -1.51802,-1.26582 -0.7407,-0.71734 -1.83947,-1.57423 -2.44171,-1.9042 l -1.09498,-0.59994 0.16654,0.86452 0.16654,0.86452 -0.55253,-0.66145 c -0.45096,-0.53985 -0.64072,-0.60789 -1.03214,-0.37008 -0.60275,0.3662 -0.76232,1.91653 -0.26693,2.59331 0.41704,0.56974 0.90914,0.39014 1.21788,-0.44447 0.17117,-0.4627 0.28061,-0.33206 0.70082,0.83648 0.49387,1.37342 1.04187,2.10493 1.34773,1.79906 0.0875,-0.0875 -0.0283,-0.6273 -0.25736,-1.19964 -0.38768,-0.96891 -0.38396,-1.06996 0.0539,-1.46619 0.54082,-0.48944 1.09224,-0.58651 0.61378,-0.10806 -0.51316,0.51316 -0.37524,0.98637 0.62778,2.15399 0.81907,0.95346 0.92294,1.22404 0.77792,2.02643 -0.0921,0.50932 -0.15394,1.5624 -0.13754,2.34018 0.0185,0.87808 -0.12592,1.65185 -0.38104,2.04121 -0.46432,0.70865 -0.52945,1.17486 -0.16412,1.17486 0.13572,0 0.3294,-0.26038 0.43041,-0.57863 z m -9.64485,-0.56147 c 0.0252,-0.51965 0.0579,-0.50433 0.31566,0.14791 0.15813,0.40018 0.3965,0.72761 0.5297,0.72761 0.36961,0 -0.0355,-1.3594 -0.66486,-2.23088 -0.30808,-0.42662 -0.61154,-1.31959 -0.67436,-1.98438 -0.0979,-1.03575 -0.0175,-1.29903 0.56183,-1.83999 l 0.67604,-0.63129 -0.15611,0.96202 c -0.0859,0.52911 -0.0471,0.96202 0.086,0.96202 0.35832,0 1.2071,-1.54564 1.01737,-1.85263 -0.0898,-0.14522 -0.0937,-0.26404 -0.009,-0.26404 0.085,0 0.28931,0.32742 0.45413,0.7276 0.24598,0.59723 0.32004,0.64133 0.41328,0.24614 0.0625,-0.26481 -0.17741,-0.92121 -0.53308,-1.45868 -1.01338,-1.53131 -1.09699,-2.0626 -0.48721,-3.09609 0.29754,-0.50429 0.47453,-0.91689 0.39331,-0.91689 -0.28591,0 -1.75775,1.20336 -2.85655,2.33547 -1.67938,1.73029 -2.12882,4.44098 -1.15916,6.9911 0.27779,0.73055 0.46332,0.83146 1.35698,0.73804 0.4001,-0.0418 0.43577,0.0378 0.20774,0.46392 -0.15141,0.28292 -0.20335,0.58635 -0.11541,0.67428 0.27442,0.27442 0.61399,-0.0957 0.64339,-0.70124 z m 11.87811,0.87552 c 0,-0.14552 0.11906,-0.26459 0.26458,-0.26459 0.14552,0 0.26458,0.11907 0.26458,0.26459 0,0.14552 -0.11906,0.26458 -0.26458,0.26458 -0.14552,0 -0.26458,-0.11906 -0.26458,-0.26458 z m -15.79904,-14.38265 c -2.23535,-0.84973 -2.69746,-1.19308 -3.83591,-2.85008 -2.45734,-3.57661 -2.25066,-8.92299 0.44176,-11.42788 1.21879,-1.1339 3.64441,-2.26717 5.25867,-2.45689 3.29337,-0.38707 6.17565,1.1975 7.89149,4.33845 0.57935,1.06053 1.00421,2.07256 0.94413,2.24895 -0.0601,0.1764 -0.35572,-0.15553 -0.65698,-0.73761 -0.30127,-0.58209 -0.97575,-1.46947 -1.49886,-1.97196 -0.84384,-0.81058 -1.14338,-0.92586 -2.65584,-1.02217 -1.9864,-0.12648 -3.65113,0.51754 -4.76762,1.84442 -1.27031,1.50966 -0.65517,3.39867 1.10674,3.39867 0.95408,0 1.47475,-0.52825 1.35479,-1.3745 -0.063,-0.44469 -0.25965,-0.60988 -0.72587,-0.60988 -0.35167,0 -0.68589,0.13946 -0.74271,0.30991 -0.0657,0.19716 0.0947,0.25813 0.44097,0.16758 0.42456,-0.11103 0.54428,-0.0173 0.54428,0.426 0,0.76876 -0.65548,0.96776 -1.45725,0.44242 -0.7764,-0.50871 -0.82453,-0.98476 -0.2055,-2.03269 0.60466,-1.0236 2.06813,-1.08364 2.97164,-0.1219 0.55175,0.58731 0.66027,0.61188 1.18483,0.26817 0.56152,-0.36792 1.17416,-0.30208 2.60936,0.28046 0.56661,0.22999 1.24692,1.7526 1.24692,2.79078 0,1.25151 -0.971,2.58124 -2.14081,2.93172 -0.5688,0.17042 -1.03419,0.42281 -1.03419,0.56086 0,0.13806 -0.17766,0.18284 -0.39479,0.0995 -0.257,-0.0986 -0.535,0.11964 -0.79649,0.62531 -0.22093,0.42724 -0.63077,0.89939 -0.91074,1.04923 -0.87555,0.46858 -2.46539,0.30773 -3.57061,-0.36126 -0.81061,-0.49066 -1.144,-0.56754 -1.49921,-0.34571 -0.3594,0.22445 -0.68714,0.13283 -1.53727,-0.42975 -1.23382,-0.81651 -1.43324,-0.59869 -0.35287,0.38541 1.63208,1.48665 3.71085,2.66576 4.34493,2.46452 0.3146,-0.0999 0.71398,0.008 1.00625,0.27301 0.43993,0.39812 0.60585,0.40257 1.79921,0.0482 3.65531,-1.08552 6.14492,-3.64901 6.14492,-6.32731 0,-0.79044 0.10205,-1.22366 0.26458,-1.12321 0.44063,0.27233 0.29809,1.97046 -0.30402,3.6218 -0.41681,1.14313 -0.90914,1.86563 -1.84414,2.70627 -2.70427,2.43137 -5.57923,3.06851 -8.62379,1.91116 z m 3.67352,-4.0469 c 0.26612,-0.24084 0.48385,-0.64298 0.48385,-0.89365 0,-0.56238 -0.67216,-1.1561 -1.04675,-0.92459 -0.43944,0.27159 -0.31972,0.66872 0.14754,0.48942 0.3064,-0.11758 0.39797,-0.0316 0.33073,0.31067 -0.14393,0.7326 -0.89133,1.09763 -1.39372,0.68069 -0.81556,-0.67686 -0.2656,-2.11973 0.83968,-2.20299 0.39439,-0.0297 0.49954,-0.13173 0.32041,-0.31086 -0.29405,-0.29406 -1.5357,0.33131 -1.94883,0.98155 -0.3648,0.57417 0.0522,1.77371 0.70834,2.03774 0.84429,0.33973 1.01847,0.32096 1.55875,-0.16798 z m -6.02891,-1.98775 c -0.4198,-0.31545 -1.16813,-0.94053 -1.66294,-1.38906 -0.63154,-0.57248 -0.84838,-0.67108 -0.7276,-0.33086 0.0946,0.26657 0.17205,0.59171 0.17205,0.72253 0,0.23442 2.29216,1.53465 2.74766,1.55862 0.12877,0.007 -0.10936,-0.24578 -0.52917,-0.56123 z m 9.83539,-0.42269 c 0.89392,-0.62078 1.59586,-2.70793 0.9107,-2.70793 -0.14552,0 -0.26458,0.33443 -0.26458,0.74318 0,0.81983 -0.38425,1.42066 -1.19063,1.86171 -0.36587,0.20012 -0.40669,0.29067 -0.13229,0.29343 0.21828,0.002 0.52284,-0.0835 0.6768,-0.19039 z m -8.2844,-1.71574 c -1.02232,-1.05629 -1.64995,-2.50221 -1.66162,-3.82796 l -0.009,-1.00069 -0.52036,0.62463 c -0.70533,0.84664 -0.65422,1.77911 0.14109,2.57442 0.3638,0.36381 0.66146,0.826 0.66146,1.02711 0,0.45307 1.24742,1.46238 1.80738,1.46238 0.28842,0 0.16193,-0.25951 -0.41915,-0.85989 z m 8.13677,0.33073 c 0.56448,-0.56449 0.70075,-1.45023 0.26458,-1.7198 -0.14783,-0.0914 -0.26458,0.11191 -0.26458,0.46064 0,1.17802 -1.39511,1.7317 -2.13054,0.84556 -0.31119,-0.37496 -0.36498,-0.37476 -0.57589,0.002 -0.36069,0.64454 -0.004,0.94067 1.13455,0.94067 0.68994,0 1.22174,-0.17903 1.57188,-0.52916 z m -0.96265,-1.7198 c 0.0838,-0.21828 0.0497,-0.39687 -0.0757,-0.39687 -0.12538,0 -0.2965,0.17859 -0.38027,0.39687 -0.0838,0.21829 -0.0497,0.39688 0.0757,0.39688 0.12538,0 0.2965,-0.17859 0.38027,-0.39688 z m -5.47283,-4.16718 c 0.8326,-0.92487 0.96094,-1.25677 0.48594,-1.25677 -0.55146,0 -1.80035,1.24889 -1.58971,1.58971 0.24738,0.40028 0.51687,0.31899 1.10377,-0.33294 z m -18.83223,13.59544 c -2.03785,-0.36568 -4.01968,-1.69721 -6.1394398,-4.12488 -0.57996,-0.6642 -1.18533,-3.12248 -1.18813,-4.82471 -0.002,-1.3041 0.81864,-3.51868 1.83541,-4.95216 0.50656,-0.71417 0.94939,-1.48808 0.98405,-1.71979 0.0365,-0.24419 0.32999,-0.4292 0.6980698,-0.44009 0.34927,-0.0103 1.23035,-0.16174 1.95796,-0.33645 0.7276,-0.1747 1.79916,-0.33688 2.38125,-0.3604 1.3805,-0.0558 4.31613,0.47748 4.78895,0.86989 1.00823,0.83675 -0.16026,1.01688 -2.39055,0.36852 -1.24082,-0.36071 -1.46849,-0.36089 -2.15739,-0.002 -0.4236,0.22091 -1.06783,0.40317 -1.43164,0.40503 -1.94664,0.01 -4.5567998,3.24839 -4.6042598,5.71257 -0.0235,1.2193 0.0242,1.33493 0.50322,1.21909 0.8208398,-0.19852 1.7095398,-1.41066 1.5419298,-2.10313 -0.0806,-0.33296 -0.0208,-0.59531 0.13577,-0.59531 0.15392,0 0.6449,-0.38696 1.09108,-0.8599 0.64585,-0.68461 0.85919,-0.78412 1.04656,-0.48815 0.18938,0.29915 0.49589,0.18049 1.56952,-0.60763 0.7338,-0.53865 1.40812,-1.21234 1.49849,-1.49708 0.14327,-0.45142 0.29581,-0.35667 1.19121,0.73992 2.63489,3.22691 3.08458,3.64246 3.53615,3.26769 0.36326,-0.30147 0.5007,-0.26177 0.94807,0.27389 0.28778,0.34455 0.59413,0.83482 0.68078,1.08949 0.28346,0.83302 0.70286,0.51024 0.51567,-0.39688 -0.37097,-1.7978 -0.98225,-3.26704 -1.65121,-3.96875 -0.38151,-0.40018 -0.54315,-0.7276 -0.35921,-0.7276 0.64201,0 1.80072,1.4738 2.39475,3.04596 0.75242,1.99133 0.62897,3.91848 -0.43209,6.74517 l -0.74429,1.98282 -2.30511,1.16243 c -2.4158,1.21824 -3.84444,1.49015 -5.89557,1.12208 z m 3.04571,-7.06147 c 0.2918,-1.4056 1.02557,-2.44629 1.25152,-1.77501 0.0606,0.17995 0.31581,0.58119 0.5672,0.89164 l 0.45707,0.56445 0.45083,-0.68805 c 0.43306,-0.66093 0.42725,-0.71669 -0.14721,-1.41423 -1.11509,-1.35401 -2.26372,-2.45913 -2.55595,-2.45913 -0.16389,0 -0.31261,0.54906 -0.3404,1.25677 -0.0272,0.69123 -0.0624,1.61396 -0.0784,2.05052 -0.016,0.43657 -0.10528,0.97235 -0.19845,1.19063 -0.0932,0.21828 -0.21058,0.91035 -0.2609,1.53793 -0.077,0.95984 -0.0394,1.06987 0.23628,0.69281 0.18027,-0.24653 0.45856,-1.07828 0.61842,-1.84833 z m 4.72643,-0.056 c 0.17013,-0.3179 0.1338,-0.67752 -0.11361,-1.12448 -0.3551,-0.6415 -0.36396,-0.6304 -0.37311,0.46737 -0.0102,1.22447 0.102,1.37596 0.48672,0.65711 z m -9.01237,-2.95568 c 0.0661,-0.19843 -0.0331,-0.29765 -0.23151,-0.23151 -0.191,0.0637 -0.39936,0.27203 -0.46302,0.46302 -0.0662,0.19844 0.0331,0.29766 0.23151,0.23151 0.19099,-0.0637 0.39935,-0.27202 0.46302,-0.46302 z"
       id="path970"
       inkscape:connector-curvature="0"
       inkscape:export-xdpi="96"
       inkscape:export-ydpi="96" />
  </g>
</svg>
